<?xml version="1.0" encoding="UTF-8"?>
<svg width="1024px" height="1024px" viewBox="0 0 1024 1024" version="1.1" xmlns="http://www.w3.org/2000/svg" xmlns:xlink="http://www.w3.org/1999/xlink">
    <!-- Generator: Sketch 56.3 (81716) - https://sketch.com -->
    <title>sample-terminal-icon</title>
    <desc>Created with Sketch.</desc>
    <defs>
        <linearGradient x1="50%" y1="0%" x2="50%" y2="100%" id="linearGradient-1">
            <stop stop-color="#DCE0E1" offset="0%"></stop>
            <stop stop-color="#848484" offset="100%"></stop>
        </linearGradient>
        <path d="M48,30 C38.0588745,30 30,38.0588745 30,48 L30,762 C30,771.941125 38.0588745,780 48,780 L902,780 C911.941125,780 920,771.941125 920,762 L920,48 C920,38.0588745 911.941125,30 902,30 L48,30 Z M48,0 L902,0 C928.509668,0 950,21.490332 950,48 L950,762 C950,788.509668 928.509668,810 902,810 L48,810 C21.490332,810 0,788.509668 0,762 L0,48 C0,21.490332 21.490332,0 48,0 Z" id="path-2"></path>
        <filter x="-2.4%" y="-1.7%" width="104.7%" height="105.6%" filterUnits="objectBoundingBox" id="filter-3">
            <feOffset dx="0" dy="9" in="SourceAlpha" result="shadowOffsetOuter1"></feOffset>
            <feGaussianBlur stdDeviation="6" in="shadowOffsetOuter1" result="shadowBlurOuter1"></feGaussianBlur>
            <feColorMatrix values="0 0 0 0 0   0 0 0 0 0   0 0 0 0 0  0 0 0 0.121178668 0" type="matrix" in="shadowBlurOuter1"></feColorMatrix>
        </filter>
    </defs>
    <g id="sample-terminal-icon" stroke="none" stroke-width="1" fill="none" fill-rule="evenodd">
        <g id="icon" transform="translate(37.000000, 107.000000)">
            <g id="Rectangle" fill-rule="nonzero">
                <use fill="black" fill-opacity="1" filter="url(#filter-3)" xlink:href="#path-2"></use>
                <use fill="url(#linearGradient-1)" xlink:href="#path-2"></use>
            </g>
            <rect id="Rectangle-Copy" fill="#292D3E" x="67" y="30" width="818" height="750" rx="18"></rect>
            <path d="M78,78 L78,732 L872,732 L872,78 L78,78 Z M48,30 L902,30 C911.941125,30 920,38.0588745 920,48 L920,762 C920,771.941125 911.941125,780 902,780 L48,780 C38.0588745,780 30,771.941125 30,762 L30,48 C30,38.0588745 38.0588745,30 48,30 Z" id="Rectangle" fill="#000000" fill-rule="nonzero"></path>
            <rect id="Rectangle-2" fill="#89DDFF" x="118" y="150" width="190" height="60" rx="9"></rect>
            <rect id="Rectangle-2-Copy-3" fill="#939EDE" x="118" y="350" width="300" height="60" rx="9"></rect>
            <rect id="Rectangle-2-Copy-2" fill="#C792EA" x="458" y="350" width="120" height="60" rx="9"></rect>
            <rect id="Rectangle-2-Copy" fill="#C3E88D" x="118" y="250" width="400" height="60" rx="9"></rect>
        </g>
    </g>
</svg>